<?xml version="1.0" standalone="no"?>
<!DOCTYPE svg PUBLIC "-//W3C//DTD SVG 1.1//EN" "http://www.w3.org/Graphics/SVG/1.1/DTD/svg11.dtd" >
<svg xmlns="http://www.w3.org/2000/svg" xmlns:xlink="http://www.w3.org/1999/xlink" version="1.1">
<metadata></metadata>
<defs>
<font id="flamabook" horiz-adv-x="1056" >
<font-face units-per-em="2048" ascent="1638" descent="-410" />
<missing-glyph horiz-adv-x="471" />
<glyph horiz-adv-x="0" />
<glyph horiz-adv-x="0" />
<glyph horiz-adv-x="682" />
<glyph unicode="&#xd;" horiz-adv-x="471" />
<glyph unicode=" "  horiz-adv-x="471" />
<glyph unicode="&#x09;" horiz-adv-x="471" />
<glyph unicode="&#xa0;" horiz-adv-x="471" />
<glyph unicode="!" horiz-adv-x="575" d="M203 0v240h168v-240h-168zM207 1001v459h164v-459l-33 -595h-96z" />
<glyph unicode="&#x22;" horiz-adv-x="765" d="M152 1260v204h147v-204l-25 -246h-96zM469 1260v204h145v-204l-24 -246h-96z" />
<glyph unicode="#" horiz-adv-x="1171" d="M43 393l18 101h215l86 485h-227l21 98h221l69 383h97l-66 -383h359l67 383h98l-65 -383h213l-14 -98h-215l-86 -485h221l-17 -101h-219l-69 -393h-101l68 393h-357l-67 -393h-100l67 393h-217zM377 494h356l88 485h-360z" />
<glyph unicode="$" horiz-adv-x="1200" d="M111 324l143 55q40 -121 138 -188.5t237 -67.5q138 0 229.5 69.5t91.5 188.5q0 107 -56 166t-157 86l-254 78q-148 45 -223.5 130.5t-75.5 233.5q0 153 103 255.5t264 123.5v184h147v-184q134 -16 232.5 -82t144.5 -184l-133 -58q-90 191 -324 191q-115 0 -198.5 -59.5 t-83.5 -171.5q0 -86 53.5 -141t173.5 -93l254 -82q285 -87 285 -377q0 -166 -110.5 -277.5t-293.5 -131.5v-201h-147v199q-163 15 -280.5 103t-159.5 235z" />
<glyph unicode="%" horiz-adv-x="1564" d="M111 965v272q0 122 76.5 185t191.5 63q118 0 195 -62t77 -188v-279q0 -114 -80 -175.5t-194 -61.5q-120 0 -193 63.5t-73 182.5zM223 954q0 -67 39.5 -105t116.5 -38q76 0 119 41t43 102v295q0 62 -42 105t-118 43q-75 0 -116.5 -42t-41.5 -106v-295zM266 0l946 1468h109 l-944 -1468h-111zM913 219v270q0 124 77 189t192 65q119 0 196.5 -61t77.5 -186v-279q0 -115 -81 -177.5t-195 -62.5q-116 0 -191.5 61t-75.5 181zM1024 215q0 -68 40 -106.5t118 -38.5q77 0 119 41t42 104v293q0 63 -41.5 105t-119.5 42q-76 0 -117 -41t-41 -106v-293z" />
<glyph unicode="&#x26;" horiz-adv-x="1544" d="M139 381q0 63 20.5 123.5t63 119.5t117 108.5t174.5 80.5q-182 187 -182 340q0 48 12.5 93t44 90t78 78t121.5 54t168 21q173 0 271.5 -91t98.5 -220q0 -146 -100.5 -247.5t-265.5 -152.5l358 -387q69 125 111 264l131 -18q-41 -172 -146 -348l271 -289h-215l-172 180 q-193 -209 -494 -209q-212 0 -338.5 117t-126.5 293zM305 397q0 -131 92 -213t238 -82q110 0 210.5 44.5t166.5 127.5l-418 455q-140 -42 -214.5 -134.5t-74.5 -197.5zM506 1161q0 -41 22 -88t43 -74.5t60 -74.5l53 -62q143 44 218 118.5t75 195.5q0 95 -65.5 145.5 t-153.5 50.5q-120 0 -186 -59t-66 -152z" />
<glyph unicode="'" horiz-adv-x="452" d="M152 1260v204h147v-204l-25 -246h-96z" />
<glyph unicode="(" horiz-adv-x="606" d="M164 557q0 235 65 472.5t205 430.5h109q-82 -163 -128 -284t-74 -277t-28 -344q0 -497 232 -932h-111q-91 115 -154.5 292t-89.5 339t-26 303z" />
<glyph unicode=")" horiz-adv-x="606" d="M61 -377q232 435 232 932q0 188 -28 344t-74 277t-128 284h109q140 -193 205 -430.5t65 -472.5q0 -141 -26 -303t-89.5 -339t-154.5 -292h-111z" />
<glyph unicode="*" horiz-adv-x="874" d="M78 1235l61 96l240 -133v262h119v-262l237 133l62 -96l-248 -141l166 -232l-103 -67l-174 247l-176 -247l-98 67l160 232z" />
<glyph unicode="+" horiz-adv-x="1208" d="M92 598v104h459v459h108v-459h455v-104h-455v-459h-108v459h-459z" />
<glyph unicode="," horiz-adv-x="454" d="M145 4v236h166v-232l-71 -246h-82l43 242h-56z" />
<glyph unicode="-" horiz-adv-x="731" d="M94 512v135h543v-135h-543z" />
<glyph unicode="." horiz-adv-x="454" d="M145 0v240h166v-240h-166z" />
<glyph unicode="/" horiz-adv-x="700" d="M-6 -297l541 1778h120l-538 -1778h-123z" />
<glyph unicode="0" horiz-adv-x="1193" d="M119 393v668q0 102 39 184.5t106.5 134.5t154 79.5t183.5 27.5q99 0 184 -27t150 -79t102 -134.5t37 -185.5v-664q0 -100 -39 -181.5t-105 -134t-151 -80.5t-180 -28q-98 0 -183.5 26.5t-152.5 77t-106 132t-39 184.5zM285 401q0 -126 84.5 -210.5t230.5 -84.5 t227.5 84.5t81.5 215.5v661q0 123 -82.5 206t-226.5 83q-145 0 -230 -85t-85 -212v-658z" />
<glyph unicode="1" horiz-adv-x="1024" d="M100 0v121h357v1196l-330 -55l-12 112l438 92h65v-1345h330v-121h-848z" />
<glyph unicode="2" horiz-adv-x="1093" d="M115 1079v54q0 170 118.5 263t313.5 93q201 0 309.5 -106t108.5 -279q0 -82 -21 -162.5t-50.5 -143.5t-85 -140.5t-99 -129.5t-117.5 -135l-234 -256v-2h635v-135h-846v104l410 469q58 66 97 119t74.5 118t53 135.5t17.5 148.5v16q0 111 -69 179.5t-200 68.5 q-119 0 -192.5 -61.5t-73.5 -168.5v-49h-149z" />
<glyph unicode="3" horiz-adv-x="1126" d="M123 303v64h153v-50q0 -53 24.5 -95t67 -67t94 -38t109.5 -13q125 0 209 80.5t84 216.5q0 70 -23.5 124t-57 83t-77.5 48t-77.5 24.5t-63.5 5.5h-170v135h166q124 0 196 69.5t72 203.5q0 69 -23 121.5t-62.5 82t-84.5 44t-94 14.5q-123 0 -199.5 -59.5t-76.5 -176.5v-30 h-152v53q0 152 117 248t315 96q110 0 193.5 -33.5t130.5 -88.5t69.5 -117.5t22.5 -129.5q0 -127 -58 -223.5t-179 -128.5v-6q123 -31 204.5 -124t81.5 -230q0 -134 -63.5 -233.5t-169 -149.5t-236.5 -50q-213 0 -327.5 96t-114.5 234z" />
<glyph unicode="4" horiz-adv-x="1181" d="M113 395v133l573 934h176l-581 -930h448v297l160 113v-410h203v-137h-203v-395h-160v395h-616z" />
<glyph unicode="5" horiz-adv-x="1120" d="M121 293v74h153v-48q0 -68 41 -117.5t104.5 -72.5t139.5 -23q46 0 87 10t80.5 35.5t68 64t46 100t17.5 139.5v51q0 142 -82 214.5t-205 72.5q-146 0 -272 -109l-145 21l45 757h747v-145h-616l-29 -494q149 105 330 105q73 0 142 -24.5t125.5 -70.5t91 -122.5t34.5 -171.5 v-90q0 -118 -35.5 -210t-98.5 -149.5t-147.5 -87t-185.5 -29.5q-107 0 -192 27.5t-137 73t-79.5 102t-27.5 117.5z" />
<glyph unicode="6" horiz-adv-x="1142" d="M119 395v674q0 192 131.5 305t333.5 113q195 0 309.5 -92t114.5 -250v-47h-154v28q0 109 -74.5 170.5t-199.5 61.5q-138 0 -216.5 -80t-78.5 -203v-332q60 87 160.5 137t207.5 50q158 0 264.5 -91.5t106.5 -238.5v-238q0 -183 -127.5 -286t-329.5 -103q-199 0 -323.5 117 t-124.5 305zM285 385q0 -115 78.5 -197t216.5 -82q135 0 206.5 70.5t71.5 179.5v199q0 66 -23.5 115.5t-63.5 76t-85 39.5t-96 13q-69 0 -138 -33.5t-118 -101t-49 -150.5v-129z" />
<glyph unicode="7" horiz-adv-x="1083" d="M115 1315v145h901v-117q-505 -542 -541 -1343h-176q20 375 165 731.5t355 583.5h-704z" />
<glyph unicode="8" horiz-adv-x="1132" d="M111 348v80q0 109 66 195.5t169 124.5q-100 30 -158.5 110.5t-58.5 177.5v72q0 121 63.5 209t160.5 129t212 41q87 0 164.5 -21.5t139.5 -64t98.5 -112.5t36.5 -159v-61q0 -71 -20.5 -131.5t-72.5 -112.5t-131 -75q104 -30 173 -117t69 -201v-76q0 -177 -128.5 -280 t-330.5 -103t-327 100t-125 275zM274 358q0 -114 84.5 -186t206.5 -72q130 0 211.5 70.5t81.5 196.5v63q0 65 -26 115t-69 79t-93 43.5t-103 14.5q-76 0 -140.5 -25t-108.5 -83.5t-44 -141.5v-74zM287 1051q0 -81 45 -139t107 -82.5t130 -24.5q109 0 194 68.5t85 179.5v75 q0 48 -16.5 87.5t-44 66t-64.5 45t-78 27t-84 8.5q-109 0 -191.5 -65.5t-82.5 -176.5v-69z" />
<glyph unicode="9" horiz-adv-x="1140" d="M119 862v225q0 185 128 292.5t331 107.5q198 0 321 -116t123 -302v-678q0 -191 -132 -303.5t-333 -112.5q-196 0 -308 91.5t-112 250.5v48h152v-31q0 -109 74.5 -169.5t199.5 -60.5q138 0 216.5 80.5t78.5 204.5v332q-53 -99 -153 -146t-216 -47q-158 0 -264 93t-106 241 zM283 907q0 -65 24 -114.5t63.5 -77.5t85.5 -42t95 -14q69 0 138.5 34t119 102t49.5 151v131q0 115 -78 199t-217 84q-134 0 -207 -76t-73 -186v-191z" />
<glyph unicode=":" horiz-adv-x="454" d="M145 0v240h166v-240h-166zM145 791v237h166v-237h-166z" />
<glyph unicode=";" horiz-adv-x="454" d="M145 4v236h166v-232l-71 -246h-82l43 242h-56zM145 791v237h166v-237h-166z" />
<glyph unicode="&#x3c;" horiz-adv-x="1208" d="M125 608v86l911 416l47 -96l-804 -361l800 -374l-47 -95z" />
<glyph unicode="=" horiz-adv-x="1208" d="M88 401v105h1030v-105h-1030zM88 799v104h1030v-104h-1030z" />
<glyph unicode="&#x3e;" horiz-adv-x="1208" d="M123 1014l47 96l913 -416v-86l-907 -424l-47 95l801 374z" />
<glyph unicode="?" horiz-adv-x="1075" d="M129 1065v63q0 89 35 159t95 112.5t135 64t161 21.5q185 0 293 -96t108 -269q0 -64 -16 -119.5t-48.5 -103t-61.5 -80t-74 -74.5q-8 -7 -39 -35t-42 -38.5t-34 -37.5t-32.5 -47.5t-18 -50.5t-8.5 -63v-78h-144v64q0 58 10.5 103.5t35 84t45 62.5t59.5 63q13 13 43 42 t44.5 44t39 42t37 47.5t26 48t19.5 57t6 61.5q0 116 -71.5 181t-190.5 65q-46 0 -91 -12t-86 -36.5t-66.5 -70t-25.5 -106.5v-68h-143zM424 0v240h168v-240h-168z" />
<glyph unicode="@" horiz-adv-x="1961" d="M127 518q0 212 74 387t202 290.5t299.5 179t366.5 63.5q157 0 300 -51t250 -141t170.5 -222.5t63.5 -286.5q0 -134 -37 -245.5t-97.5 -185t-139.5 -124.5t-161 -73.5t-165 -22.5h-102l33 172h-6q-62 -95 -156 -146t-180 -51q-133 0 -211 69.5t-78 191.5q0 31 14 108 l43 260q30 175 143.5 271t266.5 96q93 0 168 -46t94 -134h6l31 167h125l-150 -870q63 3 124.5 25.5t120.5 69t103.5 111.5t71.5 159.5t27 205.5q0 131 -58 245t-154 190.5t-218.5 119.5t-251.5 43q-172 0 -321.5 -56t-261 -158.5t-176 -257.5t-64.5 -343q0 -141 39 -262 t108 -208.5t160 -148.5t200 -93q132 -39 297 -39q218 0 422 59l23 -82q-194 -73 -465 -73q-82 0 -178.5 14.5t-165.5 38.5q-118 41 -215 107.5t-173.5 161.5t-118.5 226.5t-42 288.5zM690 346q0 -81 56.5 -125.5t154.5 -44.5q105 0 200 88t118 219l28 181q6 30 6 55 q0 113 -65.5 169t-161.5 56q-109 0 -184.5 -63t-96.5 -179l-51 -296q-4 -28 -4 -60z" />
<glyph unicode="A" horiz-adv-x="1345" d="M53 0l547 1462h154l538 -1462h-174l-149 424h-596l-154 -424h-166zM420 563h502l-248 701h-2z" />
<glyph unicode="B" horiz-adv-x="1282" d="M162 0v1462h561q195 0 306.5 -93t111.5 -269q0 -118 -67 -208.5t-187 -125.5v-2q142 -25 219.5 -123.5t77.5 -232.5q0 -99 -37.5 -178.5t-100.5 -128.5t-141.5 -75t-165.5 -26h-577zM328 141h377q140 0 226.5 70.5t86.5 204.5q0 132 -86.5 198t-229.5 66h-374v-539z M328 819h350q131 0 216 65.5t85 190.5t-79.5 185.5t-211.5 60.5h-360v-502z" />
<glyph unicode="C" horiz-adv-x="1308" d="M127 463v506q0 153 72 271t198 181.5t285 63.5q146 0 263.5 -52.5t187 -153t69.5 -232.5v-72h-158v51q0 145 -101.5 228t-266.5 83t-274 -99t-109 -267v-490q0 -164 109.5 -262t283.5 -98q162 0 260 83.5t98 229.5v31h158v-53q0 -202 -146 -320.5t-370 -118.5 q-158 0 -283 55t-200.5 167.5t-75.5 267.5z" />
<glyph unicode="D" horiz-adv-x="1355" d="M162 0v1460h543q152 0 270 -56.5t187 -168.5t69 -264v-469q0 -115 -41.5 -210.5t-113 -159t-166.5 -98t-203 -34.5h-545zM328 147h368q165 0 267 95.5t102 249.5v479q0 154 -100.5 249t-272.5 95h-364v-1168z" />
<glyph unicode="E" horiz-adv-x="1218" d="M162 0v1460h938v-147h-772v-484h649v-147h-649v-535h776v-147h-942z" />
<glyph unicode="F" horiz-adv-x="1144" d="M162 0v1460h919v-147h-753v-490h622v-147h-622v-676h-166z" />
<glyph unicode="G" horiz-adv-x="1347" d="M131 463v508q0 231 156.5 374.5t396.5 143.5q147 0 264.5 -50.5t187.5 -149.5t70 -230v-70h-159v49q0 144 -100.5 223.5t-266.5 79.5q-165 0 -274 -99t-109 -269v-492q0 -164 109.5 -262t283.5 -98q163 0 263 83t100 228v164h-400v147h559v-331q0 -203 -145.5 -321 t-376.5 -118q-158 0 -283 55t-200.5 167.5t-75.5 267.5z" />
<glyph unicode="H" horiz-adv-x="1394" d="M162 0v1460h166v-633h739v633h166v-1460h-166v682h-739v-682h-166z" />
<glyph unicode="I" horiz-adv-x="489" d="M162 0v1460h166v-1460h-166z" />
<glyph unicode="J" horiz-adv-x="1191" d="M94 420v104h164v-80q0 -50 8.5 -93.5t31 -86.5t58 -73.5t94 -49t134.5 -18.5q71 0 128.5 27t93 72t54.5 101.5t19 118.5v1018h165v-1022q0 -94 -30.5 -176.5t-88.5 -147t-151 -102t-209 -37.5q-220 0 -345.5 113t-125.5 332z" />
<glyph unicode="K" horiz-adv-x="1302" d="M162 0v1460h166v-764l706 764h201l-537 -573l576 -887h-193l-491 766l-262 -268v-498h-166z" />
<glyph unicode="L" horiz-adv-x="1148" d="M162 0v1460h166v-1313h753v-147h-919z" />
<glyph unicode="M" horiz-adv-x="1640" d="M162 0v1460h203l458 -895h2l449 895h205v-1460h-160v1171h-4l-428 -833h-131l-428 831h-6v-1169h-160z" />
<glyph unicode="N" horiz-adv-x="1404" d="M162 0v1462h166l755 -1175h4v1173h156v-1460h-160l-761 1192h-5v-1192h-155z" />
<glyph unicode="O" horiz-adv-x="1366" d="M127 463v498q0 121 44.5 222t120.5 167t176.5 102.5t213.5 36.5q157 0 282 -59t200 -175.5t75 -271.5v-481q0 -160 -76 -282t-200.5 -184.5t-276.5 -62.5q-115 0 -216 32t-177.5 92.5t-121 155t-44.5 210.5zM293 481q0 -165 109.5 -262.5t283.5 -97.5q166 0 276.5 97.5 t110.5 270.5v500q0 164 -109 258t-288 94q-166 0 -274.5 -101t-108.5 -277v-482z" />
<glyph unicode="P" horiz-adv-x="1239" d="M162 0v1460h524q213 0 342 -119.5t129 -318.5q0 -191 -130 -317.5t-359 -126.5h-340v-578h-166zM328 719h303q171 0 265.5 77t94.5 226q0 140 -89.5 219.5t-235.5 79.5h-338v-602z" />
<glyph unicode="Q" horiz-adv-x="1366" d="M127 463v498q0 121 44.5 222t120.5 167t176.5 102.5t213.5 36.5q157 0 282 -59t200 -175.5t75 -271.5v-481q0 -138 -56 -247t-155 -179l242 -150l-111 -127l-291 201q-96 -27 -182 -27q-115 0 -216 32t-177.5 92.5t-121 155t-44.5 210.5zM293 481q0 -165 109.5 -262.5 t283.5 -97.5q166 0 276.5 97.5t110.5 270.5v500q0 164 -109 258t-288 94q-166 0 -274.5 -101t-108.5 -277v-482z" />
<glyph unicode="R" horiz-adv-x="1280" d="M162 0v1460h518q214 0 345.5 -115.5t131.5 -318.5q0 -157 -91 -273.5t-265 -148.5l424 -604h-185l-411 590h-301v-590h-166zM328 727h315q169 0 258.5 75t89.5 226q0 148 -92.5 220.5t-259.5 72.5h-311v-594z" />
<glyph unicode="S" horiz-adv-x="1220" d="M70 326l151 55q43 -123 149 -191.5t255 -68.5q150 0 249 70t99 192q0 110 -58.5 169.5t-166.5 90.5l-277 78q-161 45 -242.5 133.5t-81.5 239.5q0 178 133.5 285.5t335.5 107.5q115 0 210 -28.5t169 -91.5t111 -157l-143 -57q-48 95 -136.5 145t-212.5 50 q-123 0 -213 -62.5t-90 -177.5q0 -87 56 -143.5t184 -94.5l278 -84q306 -92 306 -387q0 -188 -143.5 -306t-375.5 -118q-204 0 -350 91t-196 260z" />
<glyph unicode="T" horiz-adv-x="1216" d="M51 1317v143h1114v-143h-473v-1317h-166v1317h-475z" />
<glyph unicode="U" horiz-adv-x="1380" d="M150 477v983h165v-954q0 -188 102.5 -284.5t274.5 -96.5q181 0 278 97.5t97 277.5v960h164v-973q0 -239 -148 -375.5t-395 -136.5q-87 0 -165 18t-146.5 57.5t-118.5 97.5t-79 142t-29 187z" />
<glyph unicode="V" horiz-adv-x="1198" d="M25 1460h170l401 -1239h2l408 1239h170l-498 -1468h-164z" />
<glyph unicode="W" horiz-adv-x="1783" d="M49 1460h170l289 -1206h2l311 1206h148l305 -1206h4l293 1206h164l-379 -1468h-156l-305 1210h-4l-305 -1210h-160z" />
<glyph unicode="X" horiz-adv-x="1163" d="M25 0l462 764l-421 696h188l330 -571l340 571h178l-426 -700l463 -760h-191l-368 623l-373 -623h-182z" />
<glyph unicode="Y" horiz-adv-x="1193" d="M43 1460h184l377 -692l367 692h180l-471 -854v-606h-166v608z" />
<glyph unicode="Z" horiz-adv-x="1142" d="M68 0v127l774 1190h-744v143h951v-129l-773 -1188h781v-143h-989z" />
<glyph unicode="[" horiz-adv-x="634" d="M164 -377v1837h416v-98h-283v-1641h283v-98h-416z" />
<glyph unicode="\" horiz-adv-x="700" d="M37 1481h121l540 -1778h-123z" />
<glyph unicode="]" horiz-adv-x="634" d="M55 -276h285v1638h-285v98h416v-1837h-416v101z" />
<glyph unicode="^" horiz-adv-x="1208" d="M309 328l223 880h162l205 -880h-135l-154 739l-168 -739h-133z" />
<glyph unicode="_" horiz-adv-x="1024" d="M0 -147h1024v-105h-1024v105z" />
<glyph unicode="`" d="M342 1520h178l195 -328h-125z" />
<glyph unicode="a" horiz-adv-x="1052" d="M92 276q0 80 34 142t90.5 97.5t121.5 53t135 17.5h293v143q0 201 -246 201q-102 0 -173 -39.5t-71 -120.5v-35h-139v31q0 75 33 132t89.5 89.5t123.5 48t143 15.5q82 0 149.5 -15.5t124.5 -49t88.5 -94.5t31.5 -144v-498q0 -44 5 -132t9 -118h-150q-2 14 -4 43t-3.5 61.5 t-2.5 40.5h-4q-59 -97 -142.5 -132.5t-193.5 -35.5q-149 0 -245.5 80t-96.5 219zM244 285q0 -90 66 -138.5t165 -48.5q148 0 219.5 74.5t71.5 202.5v98h-266q-256 0 -256 -188z" />
<glyph unicode="b" horiz-adv-x="1097" d="M150 0v1460h151v-600h6q49 96 137.5 143.5t180.5 47.5q166 0 269 -99.5t103 -267.5v-313q0 -100 -33 -178t-89.5 -125t-126.5 -71t-148 -24q-97 0 -181.5 52.5t-117.5 138.5h-6v-164h-145zM301 395q0 -130 82.5 -210.5t200.5 -80.5q49 0 94 15t82.5 44.5t60.5 79.5 t23 113v328q0 104 -72 170t-192 66q-50 0 -99 -21.5t-89.5 -60t-65.5 -99t-25 -131.5v-213z" />
<glyph unicode="c" horiz-adv-x="1003" d="M100 389v229q0 201 117.5 316t308.5 115q180 0 293 -96t113 -261v-26h-148v34q0 92 -67.5 157t-188.5 65q-126 0 -200 -79.5t-74 -209.5v-248q0 -129 71 -205t205 -76q121 0 187.5 64t66.5 156v28h148v-22q0 -164 -111 -260.5t-291 -96.5q-195 0 -312.5 110t-117.5 306z " />
<glyph unicode="d" horiz-adv-x="1099" d="M100 340v315q0 80 21.5 146.5t58.5 112t87.5 77t107.5 46t119 14.5q97 0 180.5 -51.5t116.5 -137.5h6v598h151v-1460h-147v180h-4q-49 -100 -141.5 -153.5t-180.5 -53.5q-168 0 -271.5 99.5t-103.5 267.5zM254 346q0 -105 72 -172.5t192 -67.5q108 0 193.5 84.5 t85.5 225.5v215q0 130 -82 210.5t-201 80.5q-49 0 -94 -15t-82.5 -44.5t-60.5 -79.5t-23 -113v-324z" />
<glyph unicode="e" horiz-adv-x="1044" d="M98 391v217q0 206 124.5 323.5t316.5 117.5q178 0 292.5 -106t114.5 -298v-162h-694v-106q0 -125 81.5 -199t217.5 -74q156 0 260 132l117 -70q-124 -193 -387 -193q-198 0 -320.5 107t-122.5 311zM252 598h543v51q0 121 -70 197t-195 76q-123 0 -200.5 -81.5 t-77.5 -205.5v-37z" />
<glyph unicode="f" horiz-adv-x="659" d="M57 905v121h183v176q0 141 71.5 216t206.5 75q60 0 113 -12v-133q-44 10 -101 10q-63 0 -101 -35.5t-38 -112.5v-184h234v-121h-234v-905h-151v905h-183z" />
<glyph unicode="g" horiz-adv-x="1089" d="M102 377v278q0 96 32 173t85.5 124.5t121 73t142.5 25.5q96 0 183.5 -47t124.5 -140h2v164h151v-1005q0 -92 -26.5 -170.5t-78 -139.5t-136.5 -96t-195 -35q-276 0 -383 197l125 76q46 -72 113 -111t145 -39q133 0 209 80t76 217v188h-5q-50 -91 -131.5 -134.5 t-179.5 -43.5q-174 0 -274.5 98t-100.5 267zM256 375q0 -105 71 -172.5t193 -67.5q52 0 99 18t87 53t63.5 94.5t23.5 135.5v205q0 127 -82.5 203t-194.5 76q-105 0 -182.5 -65t-77.5 -189v-291z" />
<glyph unicode="h" horiz-adv-x="1107" d="M150 0v1460h151v-610h6q51 97 140.5 149t191.5 52q159 0 244.5 -93.5t85.5 -246.5v-711h-152v653q0 133 -59.5 199t-165.5 66q-122 0 -206.5 -85t-84.5 -227v-606h-151z" />
<glyph unicode="i" horiz-adv-x="450" d="M150 0v1028h151v-1028h-151zM150 1237v223h151v-223h-151z" />
<glyph unicode="j" horiz-adv-x="491" d="M-45 -279q46 -4 74 -4q81 0 117 42.5t36 127.5v1141h152v-1153q0 -289 -299 -289q-44 0 -80 4v131zM182 1237v223h152v-223h-152z" />
<glyph unicode="k" horiz-adv-x="1017" d="M150 0v1460h151v-938l459 506h188l-356 -381l385 -647h-176l-314 541l-186 -195v-346h-151z" />
<glyph unicode="l" horiz-adv-x="602" d="M152 252v1208h151v-1214q0 -57 34 -92t101 -35q20 0 113 10v-121q-64 -20 -164 -20q-57 0 -100 16.5t-68 42t-40.5 61.5t-21 70.5t-5.5 73.5z" />
<glyph unicode="m" horiz-adv-x="1753" d="M147 0v1028h146v-178h4q53 98 143.5 149.5t198.5 51.5q113 0 186 -56.5t105 -148.5h2q55 98 147 151.5t205 53.5q150 0 240 -88t90 -238v-725h-152v653q0 130 -57 197.5t-166 67.5q-116 0 -197 -84.5t-84 -210.5v-623h-151v657q-3 127 -58.5 194t-164.5 67 q-68 0 -131.5 -32.5t-108.5 -102.5t-45 -162v-621h-152z" />
<glyph unicode="n" horiz-adv-x="1107" d="M150 0v1028h147v-178h4q53 97 143 149t195 52q159 0 244.5 -93.5t85.5 -246.5v-711h-152v653q0 133 -59.5 199t-165.5 66q-122 0 -206.5 -85t-84.5 -227v-606h-151z" />
<glyph unicode="o" d="M98 371v266q0 194 123 303t305 109q194 0 313 -109t119 -301v-252q0 -130 -58.5 -225.5t-154 -142t-213.5 -46.5q-195 0 -314.5 104t-119.5 294zM252 375q0 -124 73 -197.5t207 -73.5q130 0 201.5 70.5t71.5 206.5v272q0 121 -72.5 194t-206.5 73q-128 0 -201 -72.5 t-73 -202.5v-270z" />
<glyph unicode="p" horiz-adv-x="1097" d="M150 -397v1425h147v-168h4q52 95 142 143t182 48q166 0 269 -98.5t103 -266.5v-315q0 -100 -32.5 -178t-88 -125t-124 -71t-146.5 -24q-98 0 -182 52.5t-117 138.5h-6v-561h-151zM301 395q0 -130 82.5 -210.5t200.5 -80.5q49 0 94 15t82.5 44.5t60.5 79.5t23 113v324 q0 105 -72 172.5t-192 67.5q-107 0 -193 -83.5t-86 -222.5v-219z" />
<glyph unicode="q" horiz-adv-x="1097" d="M100 340v315q0 80 21.5 146.5t58.5 112t87.5 77t107.5 46t119 14.5q97 0 180.5 -51.5t116.5 -137.5h4v166h153v-1425h-151v569h-4q-50 -97 -140 -148t-178 -51q-168 0 -271.5 99.5t-103.5 267.5zM254 346q0 -105 72 -172.5t192 -67.5q108 0 192.5 84.5t84.5 225.5v215 q0 130 -81 210.5t-200 80.5q-49 0 -94 -15t-82.5 -44.5t-60.5 -79.5t-23 -113v-324z" />
<glyph unicode="r" horiz-adv-x="770" d="M141 0v1028h148v-207h4q39 78 103 130t130.5 72.5t137.5 20.5q40 0 75 -6v-143q-35 6 -94 6q-152 0 -250.5 -89.5t-101.5 -250.5v-561h-152z" />
<glyph unicode="s" horiz-adv-x="985" d="M76 139l104 86q124 -127 312 -127q100 0 176.5 49.5t76.5 135.5q0 81 -50.5 116.5t-166.5 57.5l-118 24q-289 57 -289 264q0 135 101.5 221.5t266.5 86.5q247 0 359 -129l-105 -84q-104 90 -262 90q-94 0 -150.5 -44.5t-56.5 -117.5q0 -69 52.5 -102.5t167.5 -57.5 l153 -33q252 -55 252 -266q0 -81 -35 -146t-93 -105t-129.5 -61.5t-147.5 -21.5q-286 0 -418 164z" />
<glyph unicode="t" horiz-adv-x="712" d="M41 903v123h178v322h154v-322h282v-123h-282v-649q0 -73 35 -103t108 -30q62 0 150 18v-131q-82 -26 -191 -26q-53 0 -97.5 12t-81 38t-57 72.5t-20.5 110.5v688h-178z" />
<glyph unicode="u" horiz-adv-x="1101" d="M139 317v711h154v-653q0 -132 59.5 -197t165.5 -65q120 0 203.5 85t83.5 226v604h153v-1028h-149v178h-4q-53 -99 -142 -151t-194 -52q-159 0 -244.5 95t-85.5 247z" />
<glyph unicode="v" horiz-adv-x="970" d="M37 1028h164l284 -838h2l291 838h156l-375 -1032h-151z" />
<glyph unicode="w" horiz-adv-x="1538" d="M41 1028h160l241 -835h2l256 835h142l245 -833h5l245 833h160l-330 -1032h-151l-246 833h-4l-252 -833h-152z" />
<glyph unicode="x" horiz-adv-x="970" d="M35 0l362 537l-334 491h179l245 -377l248 377h174l-334 -489l361 -539h-174l-277 416l-276 -416h-174z" />
<glyph unicode="y" horiz-adv-x="989" d="M43 1028h166l297 -813h4l285 813h155l-442 -1202q-87 -242 -322 -242q-54 0 -125 15v131q73 -17 127 -17q61 0 105.5 34.5t66.5 94.5l70 183z" />
<glyph unicode="z" horiz-adv-x="933" d="M74 0v115l579 786h-555v127h752v-119l-584 -782h594v-127h-786z" />
<glyph unicode="{" horiz-adv-x="634" d="M92 571v105q54 10 72 31t18 67v514q0 84 40.5 128t111.5 44h246v-98h-226q-39 0 -39 -43v-520q0 -129 -100 -170v-8q57 -23 78.5 -59.5t21.5 -110.5v-687q0 -25 10 -34t29 -9h226v-98h-246q-71 0 -111.5 44t-40.5 128v660q0 59 -20 84.5t-70 31.5z" />
<glyph unicode="|" horiz-adv-x="665" d="M270 -109v1594h127v-1594h-127z" />
<glyph unicode="}" horiz-adv-x="634" d="M55 -291h226q19 0 28.5 9t9.5 34v699q0 73 21.5 110t77.5 60v8q-99 41 -99 170v520q0 43 -38 43h-226v98h246q70 0 111 -44t41 -128v-514q0 -46 17.5 -67t72.5 -31v-105q-51 -6 -70.5 -31t-19.5 -85v-672q0 -84 -41 -128t-111 -44h-246v98z" />
<glyph unicode="~" horiz-adv-x="1208" d="M125 479q10 152 83 222.5t171 70.5q61 0 128.5 -28t116.5 -61t105.5 -61t97.5 -28q143 0 146 197l108 -19q-4 -78 -26 -135t-56.5 -88.5t-73.5 -45.5t-85 -14q-61 0 -126.5 28t-113 61.5t-108.5 61.5t-113 28q-61 0 -102 -49t-48 -158z" />
<glyph unicode="&#xa1;" horiz-adv-x="575" d="M205 59l33 600h100l31 -600v-458h-164v458zM205 825v238h166v-238h-166z" />
<glyph unicode="&#xa2;" horiz-adv-x="1003" d="M135 410v229q0 183 98.5 295t264.5 131v209h147v-211q146 -22 234 -114.5t88 -235.5v-27h-148v35q0 92 -67.5 156.5t-188.5 64.5q-126 0 -200 -79.5t-74 -209.5v-247q0 -128 71 -204.5t205 -76.5q121 0 187.5 63.5t66.5 155.5v29h148v-23q0 -145 -87 -237t-235 -113v-215 h-147v213q-168 18 -265.5 125t-97.5 287z" />
<glyph unicode="&#xa3;" horiz-adv-x="1189" d="M119 0v133h168v533h-152v122h152v308q0 104 34 182t92.5 122.5t129 65.5t151.5 21q171 0 273 -90.5t102 -253.5v-58h-156v66q0 97 -64.5 151t-168.5 54q-103 0 -170.5 -61.5t-67.5 -180.5v-326h443v-122h-443v-533h662l-33 -133h-952z" />
<glyph unicode="&#xa4;" horiz-adv-x="1208" d="M139 344l117 117q-78 109 -78 252q0 139 78 248l-117 118l90 88l115 -116q110 88 262 88t262 -86l111 114l90 -88l-113 -114q80 -112 80 -252q0 -144 -82 -254l115 -115l-90 -90l-113 117q-107 -86 -260 -86q-152 0 -262 88l-115 -119zM315 713q0 -131 80 -220.5 t211 -89.5q133 0 212 89t79 221q0 130 -79 218.5t-212 88.5q-131 0 -211 -88.5t-80 -218.5z" />
<glyph unicode="&#xa5;" horiz-adv-x="1200" d="M43 1460h182l373 -655l373 655h180l-465 -788h354v-123h-364v-549h-160v549h-360v123h350z" />
<glyph unicode="&#xa6;" horiz-adv-x="905" d="M401 -100v743h103v-743h-103zM401 788v674h103v-674h-103z" />
<glyph unicode="&#xa7;" horiz-adv-x="1073" d="M119 29v69h129v-43q0 -104 78.5 -160.5t210.5 -56.5q128 0 205 58.5t77 154.5q0 37 -13.5 67t-29.5 47.5t-49.5 35t-51.5 24t-59 19.5l-198 63q-268 82 -268 301q0 87 45 162.5t139 124.5q-99 49 -141.5 110.5t-42.5 155.5q0 137 102 226.5t293 89.5q185 0 289 -82.5 t104 -229.5v-61h-131v57q0 89 -70 142t-196 53q-114 0 -184 -48.5t-70 -140.5q0 -36 14.5 -65t43 -50t54.5 -34.5t64 -28.5l219 -86q47 -19 80 -35t71.5 -42t62.5 -54.5t40 -69.5t16 -90q0 -192 -184 -282q190 -78 190 -264q0 -154 -117 -253.5t-315 -99.5q-60 0 -115.5 10 t-109.5 33.5t-93.5 59t-64 90.5t-24.5 123zM289 616q0 -66 54 -109t126 -65l168 -55q83 26 130.5 81t47.5 126q0 110 -168 168l-186 67q-73 -26 -122.5 -81t-49.5 -132z" />
<glyph unicode="&#xa8;" d="M258 1243v211h152v-211h-152zM647 1243v211h152v-211h-152z" />
<glyph unicode="&#xa9;" horiz-adv-x="1763" d="M74 711q0 171 58 323t161 265t255.5 179t330.5 66q185 0 339.5 -66t256.5 -179.5t158.5 -265t56.5 -322.5q0 -172 -55.5 -324t-157 -267t-256.5 -182t-342 -67q-191 0 -344.5 64t-253.5 177t-153.5 266t-53.5 333zM197 711q0 -171 52 -310.5t144.5 -231.5t218.5 -142 t273 -50q144 0 269.5 52.5t217 146.5t144.5 232.5t53 302.5q0 168 -55.5 307t-150 230t-219.5 140.5t-265 49.5q-143 0 -267.5 -51t-216.5 -143t-145 -230t-53 -303zM479 553v301q0 188 111.5 295.5t296.5 107.5q181 0 287 -88.5t106 -242.5v-54h-139v50q0 90 -60.5 152.5 t-189.5 62.5q-132 0 -198 -80t-66 -207v-295q0 -129 63.5 -204t198.5 -75q67 0 118 19t79.5 50.5t42.5 67.5t14 74v54h137v-49q0 -155 -107 -245.5t-286 -90.5q-189 0 -298.5 101.5t-109.5 295.5z" />
<glyph unicode="&#xaa;" horiz-adv-x="804" d="M121 958q0 54 21.5 94.5t52.5 63.5t74 37t79 18.5t74 4.5h131v86q0 66 -38 100.5t-105 34.5q-64 0 -107 -29t-43 -86v-27h-108v27q0 99 77 149t193 50q108 0 180 -51t72 -156v-330q0 -102 6 -160h-113l-6 97q-38 -59 -97 -86t-120 -27q-93 0 -158 49t-65 141zM154 553 v106h524v-106h-524zM242 973q0 -55 38.5 -85t96.5 -30q69 0 121.5 42t52.5 112v90h-127q-38 0 -66 -4.5t-56.5 -16.5t-44 -39.5t-15.5 -68.5z" />
<glyph unicode="&#xab;" horiz-adv-x="1142" d="M98 549l396 389l75 -70l-280 -319l282 -320l-75 -67zM571 549l394 389l77 -70l-280 -319l282 -320l-77 -67z" />
<glyph unicode="&#xac;" horiz-adv-x="1208" d="M104 602v105h1000v-445h-117v340h-883z" />
<glyph unicode="&#xad;" horiz-adv-x="731" d="M94 512v135h543v-135h-543z" />
<glyph unicode="&#xae;" horiz-adv-x="1034" d="M96 1075q0 186 121.5 311t308.5 125q194 0 314.5 -123.5t120.5 -312.5q0 -181 -122 -306.5t-313 -125.5q-195 0 -312.5 124.5t-117.5 307.5zM172 1075q0 -165 104.5 -264.5t249.5 -99.5t252 100.5t107 263.5q0 169 -104 272t-255 103t-252.5 -102.5t-101.5 -272.5z M360 827v510h197q78 0 128 -41t50 -112q0 -56 -31.5 -96.5t-89.5 -53.5q5 -7 65 -96.5t77 -110.5h-90l-136 199h-88v-199h-82zM442 1087h99q53 0 81.5 24t28.5 69q0 44 -29.5 67t-82.5 23h-97v-183z" />
<glyph unicode="&#xaf;" d="M260 1233v137h537v-137h-537z" />
<glyph unicode="&#xb0;" horiz-adv-x="733" d="M143 1268q0 93 65 159t159 66q97 0 162 -65t65 -156q0 -93 -66.5 -157t-160.5 -64q-97 0 -160.5 62.5t-63.5 154.5zM223 1268q0 -60 42 -102t102 -42q61 0 104 42t43 102q0 62 -42.5 106.5t-104.5 44.5q-60 0 -102 -44t-42 -107z" />
<glyph unicode="&#xb1;" horiz-adv-x="1208" d="M100 758v106h449v451h110v-451h447v-106h-447v-451h-110v451h-449zM109 0v109h987v-109h-987z" />
<glyph unicode="&#xb2;" horiz-adv-x="741" d="M111 1354v35q0 102 70 156t188 54q119 0 182 -61.5t63 -163.5q0 -51 -15 -98.5t-50 -97.5t-63 -82.5t-83 -91.5l-112 -121v-4h338v-101h-504v82l248 277q57 66 86.5 118t29.5 117v4q0 57 -33.5 92t-99.5 35q-60 0 -95.5 -33t-35.5 -88v-28h-114z" />
<glyph unicode="&#xb3;" horiz-adv-x="741" d="M111 956v35h116v-26q0 -54 43 -81.5t107 -27.5q62 0 103.5 40.5t41.5 107.5q0 34 -12 60.5t-29.5 40.5t-40.5 22.5t-40.5 11t-34.5 2.5h-80v90h80q65 0 102 34.5t37 104.5q0 65 -38.5 98t-94.5 33q-61 0 -99.5 -30.5t-38.5 -86.5v-20h-114v31q0 92 68.5 148t187.5 56 q122 0 185 -62.5t63 -150.5q0 -69 -32.5 -121.5t-98.5 -70.5v-4q70 -18 113.5 -67t43.5 -124q0 -115 -81.5 -178t-198.5 -63q-125 0 -191.5 55t-66.5 143z" />
<glyph unicode="&#xb4;" d="M342 1192l195 330h178l-250 -330h-123z" />
<glyph unicode="&#xb5;" horiz-adv-x="1077" d="M145 -365v1393h162v-702q0 -95 58.5 -149t154.5 -54q93 0 169.5 73.5t76.5 182.5v649h162v-717q0 -118 86 -135v-182q-97 11 -151 65t-66 123q-86 -207 -289 -207q-75 0 -133.5 33.5t-89.5 93.5l-11 -2l41 -454z" />
<glyph unicode="&#xb6;" horiz-adv-x="1271" d="M150 965q0 126 49 238.5t142.5 184.5t211.5 72h606v-94h-153v-1638h-105v1638h-262v-1638h-102v749q-101 6 -177.5 48t-121 110.5t-66.5 151t-22 178.5z" />
<glyph unicode="&#xb7;" horiz-adv-x="454" d="M145 643v240h166v-240h-166z" />
<glyph unicode="&#xb8;" d="M301 -291q95 -37 176 -37q137 0 137 78q0 67 -155 76h-35l37 205h88l-25 -123q106 -2 169 -39t63 -115q0 -76 -68.5 -129t-185.5 -53q-111 0 -201 39v98z" />
<glyph unicode="&#xb9;" horiz-adv-x="643" d="M90 778v99h184v604l-172 -27l-8 84l246 55h57v-716h172v-99h-479z" />
<glyph unicode="&#xba;" horiz-adv-x="811" d="M127 1038v166q0 133 77 205t202 72q132 0 207 -70.5t75 -206.5v-166q0 -132 -77.5 -201t-204.5 -69q-131 0 -205 68t-74 202zM145 553v106h527v-106h-527zM250 1038q0 -176 156 -176q159 0 159 180v170q0 174 -157 174q-82 0 -120 -48.5t-38 -131.5v-168z" />
<glyph unicode="&#xbb;" horiz-adv-x="1144" d="M100 231l283 320l-283 317l80 70l391 -387l-393 -389zM573 231l283 320l-283 317l80 70l391 -387l-393 -389z" />
<glyph unicode="&#xbc;" horiz-adv-x="1622" d="M133 651v99h184v604l-172 -27l-8 84l246 55h57v-716h172v-99h-479zM399 0l805 1462h107l-801 -1462h-111zM930 209v92l323 512h138l-332 -508h229v158l117 78v-236h106v-96h-106v-209h-117v209h-358z" />
<glyph unicode="&#xbd;" horiz-adv-x="1622" d="M102 651v99h185v604l-172 -27l-9 84l246 55h58v-716h172v-99h-480zM369 0l805 1462h106l-801 -1462h-110zM1014 575v35q0 102 70.5 156.5t187.5 54.5q119 0 182.5 -61.5t63.5 -163.5q0 -51 -15 -98.5t-50 -97.5t-63.5 -83.5t-82.5 -91.5l-113 -121v-4h338v-100h-504v82 l248 276q57 66 87 118.5t30 117.5v4q0 57 -33.5 92t-99.5 35q-60 0 -96 -33t-36 -88v-29h-114z" />
<glyph unicode="&#xbe;" horiz-adv-x="1622" d="M131 829v35h117v-26q0 -54 43 -81.5t106 -27.5q62 0 104 40.5t42 107.5q0 42 -17.5 72t-45 42.5t-50.5 17.5t-45 5h-80v90h80q65 0 102 34.5t37 104.5q0 65 -38.5 98t-94.5 33q-61 0 -99 -30t-38 -87v-20h-115v31q0 92 69 148.5t187 56.5q122 0 185 -62.5t63 -150.5 q0 -69 -33 -122t-98 -71v-4q70 -18 114 -67.5t44 -123.5q0 -115 -82 -178t-199 -63q-125 0 -191.5 55.5t-66.5 142.5zM399 0l805 1462h107l-801 -1462h-111zM930 209v92l323 512h138l-332 -508h229v158l117 78v-236h106v-96h-106v-209h-117v209h-358z" />
<glyph unicode="&#xbf;" horiz-adv-x="1075" d="M129 -57q0 53 15 103.5t33 85t60 83t66.5 72.5t81.5 78q66 61 93.5 108t27.5 113v82h143v-72q0 -54 -10.5 -97.5t-34.5 -81t-45 -62t-59 -62.5q-11 -11 -43 -41t-45 -44t-38.5 -41.5t-37 -47.5t-26 -48.5t-20 -58t-5.5 -61.5q0 -117 71 -181.5t189 -64.5q47 0 91.5 11.5 t85.5 36t66 69.5t25 106v70h143v-64q0 -89 -34.5 -159t-94.5 -112t-135.5 -63.5t-161.5 -21.5q-186 0 -293.5 95t-107.5 270zM496 825v238h168v-238h-168z" />
<glyph unicode="&#xc0;" horiz-adv-x="1345" d="M53 0l547 1462h154l538 -1462h-174l-149 424h-596l-154 -424h-166zM365 1905h176l194 -328h-123zM420 563h502l-248 701h-2z" />
<glyph unicode="&#xc1;" horiz-adv-x="1345" d="M53 0l547 1462h154l538 -1462h-174l-149 424h-596l-154 -424h-166zM420 563h502l-248 701h-2zM596 1577l195 328h176l-248 -328h-123z" />
<glyph unicode="&#xc2;" horiz-adv-x="1345" d="M53 0l547 1462h154l538 -1462h-174l-149 424h-596l-154 -424h-166zM403 1573l201 325h144l194 -325h-145l-121 229l-131 -229h-142zM420 563h502l-248 701h-2z" />
<glyph unicode="&#xc3;" horiz-adv-x="1345" d="M53 0l547 1462h154l538 -1462h-174l-149 424h-596l-154 -424h-166zM317 1604q16 91 68 147.5t133 56.5q57 0 160.5 -35.5t155.5 -35.5q28 0 46.5 14t26 31.5t17.5 50.5l104 -23q-18 -93 -68 -147.5t-126 -54.5q-57 0 -162.5 35.5t-159.5 35.5q-34 0 -53.5 -22.5 t-38.5 -73.5zM420 563h502l-248 701h-2z" />
<glyph unicode="&#xc4;" horiz-adv-x="1345" d="M53 0l547 1462h154l538 -1462h-174l-149 424h-596l-154 -424h-166zM401 1589v219h150v-219h-150zM420 563h502l-248 701h-2zM797 1589v219h147v-219h-147z" />
<glyph unicode="&#xc5;" horiz-adv-x="1345" d="M53 0l547 1462h154l538 -1462h-174l-149 424h-596l-154 -424h-166zM420 563h502l-248 701h-2zM483 1731q0 78 53 133t132 55q89 0 140.5 -50t51.5 -128q0 -80 -54.5 -134.5t-133.5 -54.5q-89 0 -139 52t-50 127zM563 1733q0 -52 32 -81.5t77 -29.5t76.5 30.5t31.5 82.5 q0 53 -30 83.5t-82 30.5q-46 0 -75.5 -32.5t-29.5 -83.5z" />
<glyph unicode="&#xc6;" horiz-adv-x="2017" d="M43 0l823 1460h1032v-145h-772v-488h652v-145h-652v-535h777v-147h-942v414h-510l-234 -414h-174zM518 553h443v776z" />
<glyph unicode="&#xc7;" horiz-adv-x="1308" d="M127 463v506q0 153 72 271t198 181.5t285 63.5q146 0 263.5 -52.5t187 -153t69.5 -232.5v-72h-158v51q0 145 -101.5 228t-266.5 83t-274 -99t-109 -267v-490q0 -164 109.5 -262t283.5 -98q162 0 260 83.5t98 229.5v31h158v-53q0 -196 -137 -313.5t-350 -125.5l-13 -65 q106 -2 169 -39t63 -115q0 -76 -68.5 -129t-185.5 -53q-111 0 -201 39v98q95 -37 176 -37q138 0 138 78q0 67 -156 76h-35l27 149q-223 16 -362.5 143t-139.5 345z" />
<glyph unicode="&#xc8;" horiz-adv-x="1218" d="M162 0v1460h938v-147h-772v-484h649v-147h-649v-535h776v-147h-942zM326 1905h176l194 -328h-123z" />
<glyph unicode="&#xc9;" horiz-adv-x="1218" d="M162 0v1460h938v-147h-772v-484h649v-147h-649v-535h776v-147h-942zM557 1577l195 328h176l-248 -328h-123z" />
<glyph unicode="&#xca;" horiz-adv-x="1218" d="M162 0v1460h938v-147h-772v-484h649v-147h-649v-535h776v-147h-942zM365 1573l200 325h144l194 -325h-145l-121 229l-131 -229h-141z" />
<glyph unicode="&#xcb;" horiz-adv-x="1218" d="M162 0v1460h938v-147h-772v-484h649v-147h-649v-535h776v-147h-942zM362 1589v219h150v-219h-150zM758 1589v219h147v-219h-147z" />
<glyph unicode="&#xcc;" horiz-adv-x="489" d="M-63 1905h176l194 -328h-123zM162 0v1460h166v-1460h-166z" />
<glyph unicode="&#xcd;" horiz-adv-x="489" d="M162 0v1460h166v-1460h-166zM168 1577l194 328h177l-248 -328h-123z" />
<glyph unicode="&#xce;" horiz-adv-x="489" d="M-25 1573l201 325h143l195 -325h-145l-121 229l-131 -229h-142zM162 0v1460h166v-1460h-166z" />
<glyph unicode="&#xcf;" horiz-adv-x="489" d="M-27 1589v219h150v-219h-150zM162 0v1460h166v-1460h-166zM369 1589v219h147v-219h-147z" />
<glyph unicode="&#xd0;" horiz-adv-x="1382" d="M45 678v129h143v653h543q152 0 270 -56.5t187 -168.5t69 -264v-469q0 -115 -41.5 -210.5t-113 -159t-166.5 -98t-203 -34.5h-545v678h-143zM354 147h369q165 0 267 95.5t102 249.5v479q0 154 -100.5 249t-272.5 95h-365v-508h365v-129h-365v-531z" />
<glyph unicode="&#xd1;" horiz-adv-x="1404" d="M162 0v1462h166l755 -1175h4v1173h156v-1460h-160l-761 1192h-5v-1192h-155zM375 1604q16 91 67.5 147.5t132.5 56.5q57 0 160.5 -35.5t155.5 -35.5q28 0 46.5 14t26 31.5t17.5 50.5l104 -23q-18 -93 -68 -147.5t-126 -54.5q-57 0 -162.5 35.5t-159.5 35.5 q-34 0 -53.5 -22.5t-38.5 -73.5z" />
<glyph unicode="&#xd2;" horiz-adv-x="1366" d="M127 463v498q0 121 44.5 222t120.5 167t176.5 102.5t213.5 36.5q157 0 282 -59t200 -175.5t75 -271.5v-481q0 -160 -76 -282t-200.5 -184.5t-276.5 -62.5q-115 0 -216 32t-177.5 92.5t-121 155t-44.5 210.5zM293 481q0 -165 109.5 -262.5t283.5 -97.5q166 0 276.5 97.5 t110.5 270.5v500q0 164 -109 258t-288 94q-166 0 -274.5 -101t-108.5 -277v-482zM375 1905h176l194 -328h-122z" />
<glyph unicode="&#xd3;" horiz-adv-x="1366" d="M127 463v498q0 121 44.5 222t120.5 167t176.5 102.5t213.5 36.5q157 0 282 -59t200 -175.5t75 -271.5v-481q0 -160 -76 -282t-200.5 -184.5t-276.5 -62.5q-115 0 -216 32t-177.5 92.5t-121 155t-44.5 210.5zM293 481q0 -165 109.5 -262.5t283.5 -97.5q166 0 276.5 97.5 t110.5 270.5v500q0 164 -109 258t-288 94q-166 0 -274.5 -101t-108.5 -277v-482zM606 1577l195 328h176l-248 -328h-123z" />
<glyph unicode="&#xd4;" horiz-adv-x="1366" d="M127 463v498q0 121 44.5 222t120.5 167t176.5 102.5t213.5 36.5q157 0 282 -59t200 -175.5t75 -271.5v-481q0 -160 -76 -282t-200.5 -184.5t-276.5 -62.5q-115 0 -216 32t-177.5 92.5t-121 155t-44.5 210.5zM293 481q0 -165 109.5 -262.5t283.5 -97.5q166 0 276.5 97.5 t110.5 270.5v500q0 164 -109 258t-288 94q-166 0 -274.5 -101t-108.5 -277v-482zM414 1573l200 325h144l194 -325h-145l-121 229l-131 -229h-141z" />
<glyph unicode="&#xd5;" horiz-adv-x="1366" d="M127 463v498q0 121 44.5 222t120.5 167t176.5 102.5t213.5 36.5q157 0 282 -59t200 -175.5t75 -271.5v-481q0 -160 -76 -282t-200.5 -184.5t-276.5 -62.5q-115 0 -216 32t-177.5 92.5t-121 155t-44.5 210.5zM293 481q0 -165 109.5 -262.5t283.5 -97.5q166 0 276.5 97.5 t110.5 270.5v500q0 164 -109 258t-288 94q-166 0 -274.5 -101t-108.5 -277v-482zM328 1604q16 91 67.5 147.5t132.5 56.5q57 0 160.5 -35.5t155.5 -35.5q28 0 46.5 14t26 31.5t17.5 50.5l104 -23q-18 -93 -68 -147.5t-126 -54.5q-57 0 -162.5 35.5t-159.5 35.5 q-34 0 -53.5 -22.5t-38.5 -73.5z" />
<glyph unicode="&#xd6;" horiz-adv-x="1366" d="M127 463v498q0 121 44.5 222t120.5 167t176.5 102.5t213.5 36.5q157 0 282 -59t200 -175.5t75 -271.5v-481q0 -160 -76 -282t-200.5 -184.5t-276.5 -62.5q-115 0 -216 32t-177.5 92.5t-121 155t-44.5 210.5zM293 481q0 -165 109.5 -262.5t283.5 -97.5q166 0 276.5 97.5 t110.5 270.5v500q0 164 -109 258t-288 94q-166 0 -274.5 -101t-108.5 -277v-482zM412 1589v219h149v-219h-149zM807 1589v219h147v-219h-147z" />
<glyph unicode="&#xd7;" horiz-adv-x="1208" d="M152 276l372 375l-372 377l77 78l371 -377l371 375l76 -78l-369 -373l377 -366l-78 -80l-379 368l-371 -374z" />
<glyph unicode="&#xd8;" horiz-adv-x="1366" d="M127 463v498q0 121 44.5 222t120.5 167t176.5 102.5t213.5 36.5q202 0 348 -98l92 149l125 -72l-108 -178q100 -130 100 -307v-481q0 -160 -76 -282t-200.5 -184.5t-276.5 -62.5q-174 0 -307 68l-92 -154l-125 72l100 166q-135 129 -135 338zM293 481q0 -124 59 -207 l598 983q-104 84 -274 84q-166 0 -274.5 -101t-108.5 -277v-482zM461 174q95 -53 225 -53q166 0 276.5 97.5t110.5 270.5v500q0 77 -29 146z" />
<glyph unicode="&#xd9;" horiz-adv-x="1380" d="M150 477v983h165v-954q0 -188 102.5 -284.5t274.5 -96.5q181 0 278 97.5t97 277.5v960h164v-973q0 -239 -148 -375.5t-395 -136.5q-87 0 -165 18t-146.5 57.5t-118.5 97.5t-79 142t-29 187zM383 1905h176l195 -328h-123z" />
<glyph unicode="&#xda;" horiz-adv-x="1380" d="M150 477v983h165v-954q0 -188 102.5 -284.5t274.5 -96.5q181 0 278 97.5t97 277.5v960h164v-973q0 -239 -148 -375.5t-395 -136.5q-87 0 -165 18t-146.5 57.5t-118.5 97.5t-79 142t-29 187zM614 1577l195 328h176l-248 -328h-123z" />
<glyph unicode="&#xdb;" horiz-adv-x="1380" d="M150 477v983h165v-954q0 -188 102.5 -284.5t274.5 -96.5q181 0 278 97.5t97 277.5v960h164v-973q0 -239 -148 -375.5t-395 -136.5q-87 0 -165 18t-146.5 57.5t-118.5 97.5t-79 142t-29 187zM422 1573l201 325h143l195 -325h-146l-121 229l-131 -229h-141z" />
<glyph unicode="&#xdc;" horiz-adv-x="1380" d="M150 477v983h165v-954q0 -188 102.5 -284.5t274.5 -96.5q181 0 278 97.5t97 277.5v960h164v-973q0 -239 -148 -375.5t-395 -136.5q-87 0 -165 18t-146.5 57.5t-118.5 97.5t-79 142t-29 187zM420 1589v219h149v-219h-149zM815 1589v219h148v-219h-148z" />
<glyph unicode="&#xdd;" horiz-adv-x="1193" d="M43 1460h184l377 -692l367 692h180l-471 -854v-606h-166v608zM520 1577l195 328h176l-248 -328h-123z" />
<glyph unicode="&#xde;" horiz-adv-x="1239" d="M162 0v1460h166v-258h358q213 0 342 -120t129 -320q0 -92 -32.5 -172t-93 -140.5t-154 -95.5t-209.5 -35h-340v-319h-166zM328 459h303q171 0 265.5 77t94.5 228q0 140 -89.5 218.5t-235.5 78.5h-338v-602z" />
<glyph unicode="&#xdf;" horiz-adv-x="1308" d="M57 905v121h174v57q0 180 124.5 294t334.5 114q208 0 318 -100t110 -265q0 -120 -63 -218.5t-187 -145.5v-4q94 -21 163 -62.5t107 -95t55 -110t17 -119.5q0 -173 -117.5 -283.5t-287.5 -110.5q-167 0 -252 33l29 131q101 -26 194 -26q126 0 203.5 69.5t77.5 192.5 q0 65 -25.5 117t-66 84.5t-94 54t-105.5 30.5t-104 9v114h55q115 42 181.5 132.5t66.5 193.5q0 118 -75.5 182t-207.5 64q-146 0 -222.5 -71t-76.5 -195v-1092h-152v905h-174z" />
<glyph unicode="&#xe0;" horiz-adv-x="1052" d="M92 276q0 80 34 142t90.5 97.5t121.5 53t135 17.5h293v143q0 201 -246 201q-102 0 -173 -39.5t-71 -120.5v-35h-139v31q0 75 33 132t89.5 89.5t123.5 48t143 15.5q82 0 149.5 -15.5t124.5 -49t88.5 -94.5t31.5 -144v-498q0 -44 5 -132t9 -118h-150q-2 14 -4 43t-3.5 61.5 t-2.5 40.5h-4q-59 -97 -142.5 -132.5t-193.5 -35.5q-149 0 -245.5 80t-96.5 219zM207 1520h178l195 -328h-125zM244 285q0 -90 66 -138.5t165 -48.5q148 0 219.5 74.5t71.5 202.5v98h-266q-256 0 -256 -188z" />
<glyph unicode="&#xe1;" horiz-adv-x="1052" d="M92 276q0 80 34 142t90.5 97.5t121.5 53t135 17.5h293v143q0 201 -246 201q-102 0 -173 -39.5t-71 -120.5v-35h-139v31q0 75 33 132t89.5 89.5t123.5 48t143 15.5q82 0 149.5 -15.5t124.5 -49t88.5 -94.5t31.5 -144v-498q0 -44 5 -132t9 -118h-150q-2 14 -4 43t-3.5 61.5 t-2.5 40.5h-4q-59 -97 -142.5 -132.5t-193.5 -35.5q-149 0 -245.5 80t-96.5 219zM244 285q0 -90 66 -138.5t165 -48.5q148 0 219.5 74.5t71.5 202.5v98h-266q-256 0 -256 -188zM449 1192l194 330h178l-250 -330h-122z" />
<glyph unicode="&#xe2;" horiz-adv-x="1052" d="M92 276q0 80 34 142t90.5 97.5t121.5 53t135 17.5h293v143q0 201 -246 201q-102 0 -173 -39.5t-71 -120.5v-35h-139v31q0 75 33 132t89.5 89.5t123.5 48t143 15.5q82 0 149.5 -15.5t124.5 -49t88.5 -94.5t31.5 -144v-498q0 -44 5 -132t9 -118h-150q-2 14 -4 43t-3.5 61.5 t-2.5 40.5h-4q-59 -97 -142.5 -132.5t-193.5 -35.5q-149 0 -245.5 80t-96.5 219zM244 285q0 -90 66 -138.5t165 -48.5q148 0 219.5 74.5t71.5 202.5v98h-266q-256 0 -256 -188zM256 1188l201 328h147l193 -328h-146l-119 229l-133 -229h-143z" />
<glyph unicode="&#xe3;" horiz-adv-x="1052" d="M92 276q0 80 34 142t90.5 97.5t121.5 53t135 17.5h293v143q0 201 -246 201q-102 0 -173 -39.5t-71 -120.5v-35h-139v31q0 75 33 132t89.5 89.5t123.5 48t143 15.5q82 0 149.5 -15.5t124.5 -49t88.5 -94.5t31.5 -144v-498q0 -44 5 -132t9 -118h-150q-2 14 -4 43t-3.5 61.5 t-2.5 40.5h-4q-59 -97 -142.5 -132.5t-193.5 -35.5q-149 0 -245.5 80t-96.5 219zM166 1214q16 90 71 146.5t138 56.5q57 0 160 -35.5t155 -35.5q41 0 61.5 24.5t32.5 71.5l109 -25q-18 -92 -72 -147.5t-131 -55.5q-57 0 -162 36t-159 36q-35 0 -54.5 -22t-38.5 -72zM244 285 q0 -90 66 -138.5t165 -48.5q148 0 219.5 74.5t71.5 202.5v98h-266q-256 0 -256 -188z" />
<glyph unicode="&#xe4;" horiz-adv-x="1052" d="M92 276q0 80 34 142t90.5 97.5t121.5 53t135 17.5h293v143q0 201 -246 201q-102 0 -173 -39.5t-71 -120.5v-35h-139v31q0 75 33 132t89.5 89.5t123.5 48t143 15.5q82 0 149.5 -15.5t124.5 -49t88.5 -94.5t31.5 -144v-498q0 -44 5 -132t9 -118h-150q-2 14 -4 43t-3.5 61.5 t-2.5 40.5h-4q-59 -97 -142.5 -132.5t-193.5 -35.5q-149 0 -245.5 80t-96.5 219zM244 285q0 -90 66 -138.5t165 -48.5q148 0 219.5 74.5t71.5 202.5v98h-266q-256 0 -256 -188zM256 1243v211h152v-211h-152zM645 1243v211h152v-211h-152z" />
<glyph unicode="&#xe5;" horiz-adv-x="1052" d="M92 276q0 80 34 142t90.5 97.5t121.5 53t135 17.5h293v143q0 201 -246 201q-102 0 -173 -39.5t-71 -120.5v-35h-139v31q0 75 33 132t89.5 89.5t123.5 48t143 15.5q82 0 149.5 -15.5t124.5 -49t88.5 -94.5t31.5 -144v-498q0 -44 5 -132t9 -118h-150q-2 14 -4 43t-3.5 61.5 t-2.5 40.5h-4q-59 -97 -142.5 -132.5t-193.5 -35.5q-149 0 -245.5 80t-96.5 219zM244 285q0 -90 66 -138.5t165 -48.5q148 0 219.5 74.5t71.5 202.5v98h-266q-256 0 -256 -188zM340 1317q0 78 53 133t131 55q89 0 141 -50t52 -128q0 -79 -54.5 -133.5t-134.5 -54.5 q-89 0 -138.5 51.5t-49.5 126.5zM420 1319q0 -52 31.5 -81.5t76.5 -29.5t77 30.5t32 82.5q0 53 -30.5 84t-82.5 31q-46 0 -75 -33t-29 -84z" />
<glyph unicode="&#xe6;" horiz-adv-x="1708" d="M92 276q0 80 34 142t90.5 97.5t121.5 53t135 17.5h293v143q0 201 -246 201q-102 0 -173 -39.5t-71 -120.5v-35h-139v31q0 75 33 132t89.5 89.5t123.5 48t143 15.5q264 0 338 -158q56 75 143.5 115.5t194.5 40.5q177 0 292.5 -106t115.5 -298v-168h-690v-100 q0 -126 79.5 -199.5t214.5 -73.5q157 0 261 132l118 -72q-129 -191 -389 -191q-140 0 -240.5 55t-150.5 165q-103 -216 -379 -216q-149 0 -245.5 80t-96.5 219zM244 285q0 -90 66 -138.5t165 -48.5q146 0 217.5 74t73.5 201v100h-266q-256 0 -256 -188zM920 590h538v59 q0 121 -69.5 197t-194.5 76q-121 0 -196.5 -79.5t-77.5 -201.5v-51z" />
<glyph unicode="&#xe7;" horiz-adv-x="1003" d="M100 389v229q0 201 117.5 316t308.5 115q180 0 293 -96t113 -261v-26h-148v34q0 92 -67.5 157t-188.5 65q-126 0 -200 -79.5t-74 -209.5v-248q0 -129 71 -205t205 -76q121 0 187.5 64t66.5 156v28h148v-22q0 -155 -100 -250.5t-265 -104.5l-12 -67q105 -2 168 -39 t63 -115q0 -76 -68.5 -129t-185.5 -53q-110 0 -200 39v98q95 -37 176 -37q137 0 137 78q0 67 -156 76h-34l26 149q-175 14 -278 122t-103 292z" />
<glyph unicode="&#xe8;" horiz-adv-x="1044" d="M98 391v217q0 206 124.5 323.5t316.5 117.5q178 0 292.5 -106t114.5 -298v-162h-694v-106q0 -125 81.5 -199t217.5 -74q156 0 260 132l117 -70q-124 -193 -387 -193q-198 0 -320.5 107t-122.5 311zM240 1520h178l194 -328h-125zM252 598h543v51q0 121 -70 197t-195 76 q-123 0 -200.5 -81.5t-77.5 -205.5v-37z" />
<glyph unicode="&#xe9;" horiz-adv-x="1044" d="M98 391v217q0 206 124.5 323.5t316.5 117.5q178 0 292.5 -106t114.5 -298v-162h-694v-106q0 -125 81.5 -199t217.5 -74q156 0 260 132l117 -70q-124 -193 -387 -193q-198 0 -320.5 107t-122.5 311zM252 598h543v51q0 121 -70 197t-195 76q-123 0 -200.5 -81.5 t-77.5 -205.5v-37zM451 1192l194 330h178l-250 -330h-122z" />
<glyph unicode="&#xea;" horiz-adv-x="1044" d="M98 391v217q0 206 124.5 323.5t316.5 117.5q178 0 292.5 -106t114.5 -298v-162h-694v-106q0 -125 81.5 -199t217.5 -74q156 0 260 132l117 -70q-124 -193 -387 -193q-198 0 -320.5 107t-122.5 311zM252 598h543v51q0 121 -70 197t-195 76q-123 0 -200.5 -81.5 t-77.5 -205.5v-37zM252 1188l201 328h147l193 -328h-146l-119 229l-133 -229h-143z" />
<glyph unicode="&#xeb;" horiz-adv-x="1044" d="M98 391v217q0 206 124.5 323.5t316.5 117.5q178 0 292.5 -106t114.5 -298v-162h-694v-106q0 -125 81.5 -199t217.5 -74q156 0 260 132l117 -70q-124 -193 -387 -193q-198 0 -320.5 107t-122.5 311zM252 598h543v51q0 121 -70 197t-195 76q-123 0 -200.5 -81.5 t-77.5 -205.5v-37zM252 1243v211h151v-211h-151zM641 1243v211h152v-211h-152z" />
<glyph unicode="&#xec;" horiz-adv-x="450" d="M-88 1520h178l195 -328h-125zM150 0v1028h151v-1028h-151z" />
<glyph unicode="&#xed;" horiz-adv-x="450" d="M150 0v1028h151v-1028h-151zM158 1192l194 330h178l-249 -330h-123z" />
<glyph unicode="&#xee;" horiz-adv-x="450" d="M-45 1188l201 328h147l193 -328h-146l-119 229l-133 -229h-143zM150 0v1028h151v-1028h-151z" />
<glyph unicode="&#xef;" horiz-adv-x="450" d="M-45 1243v211h151v-211h-151zM150 0v1028h151v-1028h-151zM344 1243v211h152v-211h-152z" />
<glyph unicode="&#xf0;" horiz-adv-x="1052" d="M98 377v264q0 112 49.5 204.5t150.5 150t237 57.5q44 0 96 -23l-111 178l-229 -65l-49 106l211 60l-97 151h179l67 -112l221 55l51 -103l-206 -53l231 -366q55 -91 55 -246v-242q0 -199 -117.5 -309.5t-310.5 -110.5q-197 0 -312.5 103.5t-115.5 300.5zM252 379 q0 -129 68.5 -203t205.5 -74q139 0 207 76.5t68 214.5v250q0 132 -64.5 209.5t-199.5 77.5q-134 0 -209.5 -78.5t-75.5 -214.5v-258z" />
<glyph unicode="&#xf1;" horiz-adv-x="1107" d="M150 0v1028h147v-178h4q53 97 143 149t195 52q159 0 244.5 -93.5t85.5 -246.5v-711h-152v653q0 133 -59.5 199t-165.5 66q-122 0 -206.5 -85t-84.5 -227v-606h-151zM203 1214q16 90 71 146.5t138 56.5q57 0 160 -35.5t155 -35.5q41 0 61.5 24.5t32.5 71.5l109 -25 q-18 -92 -72 -147.5t-131 -55.5q-57 0 -162 36t-159 36q-35 0 -54.5 -22t-38.5 -72z" />
<glyph unicode="&#xf2;" d="M98 371v266q0 194 123 303t305 109q194 0 313 -109t119 -301v-252q0 -130 -58.5 -225.5t-154 -142t-213.5 -46.5q-195 0 -314.5 104t-119.5 294zM221 1520h178l195 -328h-125zM252 375q0 -124 73 -197.5t207 -73.5q130 0 201.5 70.5t71.5 206.5v272q0 121 -72.5 194 t-206.5 73q-128 0 -201 -72.5t-73 -202.5v-270z" />
<glyph unicode="&#xf3;" d="M98 371v266q0 194 123 303t305 109q194 0 313 -109t119 -301v-252q0 -130 -58.5 -225.5t-154 -142t-213.5 -46.5q-195 0 -314.5 104t-119.5 294zM252 375q0 -124 73 -197.5t207 -73.5q130 0 201.5 70.5t71.5 206.5v272q0 121 -72.5 194t-206.5 73q-128 0 -201 -72.5 t-73 -202.5v-270zM455 1192l194 330h178l-249 -330h-123z" />
<glyph unicode="&#xf4;" d="M98 371v266q0 194 123 303t305 109q194 0 313 -109t119 -301v-252q0 -130 -58.5 -225.5t-154 -142t-213.5 -46.5q-195 0 -314.5 104t-119.5 294zM252 375q0 -124 73 -197.5t207 -73.5q130 0 201.5 70.5t71.5 206.5v272q0 121 -72.5 194t-206.5 73q-128 0 -201 -72.5 t-73 -202.5v-270zM258 1188l201 328h147l193 -328h-146l-118 229l-134 -229h-143z" />
<glyph unicode="&#xf5;" d="M98 371v266q0 194 123 303t305 109q194 0 313 -109t119 -301v-252q0 -130 -58.5 -225.5t-154 -142t-213.5 -46.5q-195 0 -314.5 104t-119.5 294zM164 1214q16 90 71 146.5t138 56.5q57 0 160 -35.5t155 -35.5q41 0 61.5 24.5t32.5 71.5l109 -25q-18 -92 -72 -147.5 t-131 -55.5q-57 0 -162 36t-159 36q-35 0 -54.5 -22t-38.5 -72zM252 375q0 -124 73 -197.5t207 -73.5q130 0 201.5 70.5t71.5 206.5v272q0 121 -72.5 194t-206.5 73q-128 0 -201 -72.5t-73 -202.5v-270z" />
<glyph unicode="&#xf6;" d="M98 371v266q0 194 123 303t305 109q194 0 313 -109t119 -301v-252q0 -130 -58.5 -225.5t-154 -142t-213.5 -46.5q-195 0 -314.5 104t-119.5 294zM252 375q0 -124 73 -197.5t207 -73.5q130 0 201.5 70.5t71.5 206.5v272q0 121 -72.5 194t-206.5 73q-128 0 -201 -72.5 t-73 -202.5v-270zM258 1243v211h152v-211h-152zM647 1243v211h152v-211h-152z" />
<glyph unicode="&#xf7;" horiz-adv-x="1208" d="M92 596v106h1022v-106h-1022zM522 188v213h162v-213h-162zM522 895v215h162v-215h-162z" />
<glyph unicode="&#xf8;" d="M98 371v266q0 194 123 303t305 109q122 0 217 -45l74 129l119 -60l-82 -147q104 -110 104 -287v-252q0 -130 -58.5 -225.5t-154 -142t-213.5 -46.5q-102 0 -190 31l-70 -127l-118 57l73 134q-129 107 -129 303zM252 375q0 -106 51 -172l377 682q-62 35 -154 35 q-128 0 -201 -72.5t-73 -202.5v-270zM410 125q52 -21 122 -21q130 0 201.5 70.5t71.5 206.5v272q0 71 -29 131z" />
<glyph unicode="&#xf9;" horiz-adv-x="1101" d="M139 317v711h154v-653q0 -132 59.5 -197t165.5 -65q120 0 203.5 85t83.5 226v604h153v-1028h-149v178h-4q-53 -99 -142 -151t-194 -52q-159 0 -244.5 95t-85.5 247zM272 1520h179l194 -328h-125z" />
<glyph unicode="&#xfa;" horiz-adv-x="1101" d="M139 317v711h154v-653q0 -132 59.5 -197t165.5 -65q120 0 203.5 85t83.5 226v604h153v-1028h-149v178h-4q-53 -99 -142 -151t-194 -52q-159 0 -244.5 95t-85.5 247zM487 1192l195 330h178l-250 -330h-123z" />
<glyph unicode="&#xfb;" horiz-adv-x="1101" d="M139 317v711h154v-653q0 -132 59.5 -197t165.5 -65q120 0 203.5 85t83.5 226v604h153v-1028h-149v178h-4q-53 -99 -142 -151t-194 -52q-159 0 -244.5 95t-85.5 247zM281 1188l200 328h148l192 -328h-145l-119 229l-133 -229h-143z" />
<glyph unicode="&#xfc;" horiz-adv-x="1101" d="M139 317v711h154v-653q0 -132 59.5 -197t165.5 -65q120 0 203.5 85t83.5 226v604h153v-1028h-149v178h-4q-53 -99 -142 -151t-194 -52q-159 0 -244.5 95t-85.5 247zM281 1243v211h151v-211h-151zM670 1243v211h151v-211h-151z" />
<glyph unicode="&#xfd;" horiz-adv-x="989" d="M43 1028h166l297 -813h4l285 813h155l-442 -1202q-87 -242 -322 -242q-54 0 -125 15v131q73 -17 127 -17q61 0 105.5 34.5t66.5 94.5l70 183zM473 1192l195 330h178l-250 -330h-123z" />
<glyph unicode="&#xfe;" horiz-adv-x="1097" d="M150 -397v1857h151v-600h4q52 95 140.5 143t179.5 48q166 0 269 -98.5t103 -266.5v-315q0 -100 -32.5 -178t-88 -125t-124 -71t-146.5 -24q-98 0 -182 52.5t-117 138.5h-6v-561h-151zM301 395q0 -130 82.5 -210.5t200.5 -80.5q123 0 191.5 62t68.5 190v324 q0 105 -72 172.5t-192 67.5q-107 0 -193 -83.5t-86 -222.5v-219z" />
<glyph unicode="&#xff;" horiz-adv-x="989" d="M43 1028h166l297 -813h4l285 813h155l-442 -1202q-87 -242 -322 -242q-54 0 -125 15v131q73 -17 127 -17q61 0 105.5 34.5t66.5 94.5l70 183zM238 1243v211h151v-211h-151zM627 1243v211h151v-211h-151z" />
<glyph unicode="&#x152;" horiz-adv-x="2068" d="M127 489v443q0 122 42.5 222.5t116 166.5t172.5 102.5t212 36.5h1280v-145h-772v-488h651v-145h-651v-535h776v-147h-1278q-156 0 -278.5 54.5t-196.5 167t-74 267.5zM293 508q0 -165 109.5 -263t283.5 -98h326v1168h-336q-165 0 -274 -102.5t-109 -278.5v-426z" />
<glyph unicode="&#x153;" horiz-adv-x="1744" d="M98 371v266q0 194 123 303t305 109q125 0 216.5 -47t140.5 -138q56 90 147 137.5t209 47.5q178 0 293 -106t115 -298v-162h-691v-112q0 -122 81 -194.5t214 -72.5q158 0 262 132l117 -68q-130 -195 -387 -195q-123 0 -216.5 47.5t-147.5 137.5q-52 -89 -142.5 -137 t-204.5 -48q-195 0 -314.5 104t-119.5 294zM252 375q0 -124 73 -197.5t207 -73.5q127 0 199 73.5t72 207.5v268q0 121 -71.5 194t-205.5 73q-128 0 -201 -72.5t-73 -202.5v-270zM956 598h539v51q0 121 -69 197t-195 76q-123 0 -199 -81t-76 -206v-37z" />
<glyph unicode="&#x178;" horiz-adv-x="1193" d="M43 1460h184l377 -692l367 692h180l-471 -854v-606h-166v608zM326 1589v219h149v-219h-149zM721 1589v219h147v-219h-147z" />
<glyph unicode="&#x2c6;" d="M258 1188l201 328h147l193 -328h-146l-118 229l-134 -229h-143z" />
<glyph unicode="&#x2dc;" d="M164 1214q16 90 71 146.5t138 56.5q57 0 160 -35.5t155 -35.5q41 0 61.5 24.5t32.5 71.5l109 -25q-18 -92 -72 -147.5t-131 -55.5q-57 0 -162 36t-159 36q-35 0 -54.5 -22t-38.5 -72z" />
<glyph unicode="&#x2000;" horiz-adv-x="959" />
<glyph unicode="&#x2001;" horiz-adv-x="1919" />
<glyph unicode="&#x2002;" horiz-adv-x="959" />
<glyph unicode="&#x2003;" horiz-adv-x="1919" />
<glyph unicode="&#x2004;" horiz-adv-x="639" />
<glyph unicode="&#x2005;" horiz-adv-x="479" />
<glyph unicode="&#x2006;" horiz-adv-x="319" />
<glyph unicode="&#x2007;" horiz-adv-x="319" />
<glyph unicode="&#x2008;" horiz-adv-x="239" />
<glyph unicode="&#x2009;" horiz-adv-x="383" />
<glyph unicode="&#x200a;" horiz-adv-x="106" />
<glyph unicode="&#x2010;" horiz-adv-x="731" d="M94 512v135h543v-135h-543z" />
<glyph unicode="&#x2011;" horiz-adv-x="731" d="M94 512v135h543v-135h-543z" />
<glyph unicode="&#x2012;" horiz-adv-x="731" d="M94 512v135h543v-135h-543z" />
<glyph unicode="&#x2013;" horiz-adv-x="1024" d="M0 551v111h1024v-111h-1024z" />
<glyph unicode="&#x2014;" horiz-adv-x="2048" d="M0 551v111h2048v-111h-2048z" />
<glyph unicode="&#x2018;" horiz-adv-x="460" d="M145 995v232l70 243h84l-43 -239h55v-236h-166z" />
<glyph unicode="&#x2019;" horiz-adv-x="462" d="M150 1233v237h165v-231l-69 -244h-84l45 238h-57z" />
<glyph unicode="&#x201a;" horiz-adv-x="460" d="M147 4v236h168v-232l-69 -246h-84l43 242h-58z" />
<glyph unicode="&#x201c;" horiz-adv-x="774" d="M145 995v232l70 243h84l-43 -239h55v-236h-166zM461 995v232l71 243h82l-43 -239h56v-236h-166z" />
<glyph unicode="&#x201d;" horiz-adv-x="774" d="M147 1233v237h168v-231l-69 -244h-84l43 238h-58zM463 1233v237h166v-231l-70 -244h-84l43 238h-55z" />
<glyph unicode="&#x201e;" horiz-adv-x="774" d="M147 4v236h168v-232l-69 -246h-84l43 242h-58zM463 4v236h166v-232l-70 -246h-84l43 242h-55z" />
<glyph unicode="&#x2022;" horiz-adv-x="792" d="M188 662q0 86 61 147t148 61t148 -61t61 -147q0 -88 -60.5 -149.5t-148.5 -61.5t-148.5 61.5t-60.5 149.5z" />
<glyph unicode="&#x2026;" horiz-adv-x="1441" d="M162 0v240h166v-240h-166zM637 0v240h168v-240h-168zM1114 0v240h166v-240h-166z" />
<glyph unicode="&#x202f;" horiz-adv-x="383" />
<glyph unicode="&#x2039;" horiz-adv-x="671" d="M98 549l396 389l75 -70l-280 -319l282 -320l-75 -67z" />
<glyph unicode="&#x203a;" horiz-adv-x="671" d="M100 231l283 320l-283 317l80 70l391 -387l-393 -389z" />
<glyph unicode="&#x205f;" horiz-adv-x="479" />
<glyph unicode="&#x20ac;" horiz-adv-x="1413" d="M90 512v127h174v170h-174v125h174v53q0 222 148.5 362t382.5 140q222 0 365 -120t143 -318v-74h-160v51q0 145 -102.5 229t-266.5 84q-158 0 -252 -96t-94 -262v-49h547v-125h-547v-170h547v-127h-547v-39q0 -164 94 -258t262 -94q163 0 261 83.5t98 229.5v31h160v-53 q0 -135 -69 -235.5t-186 -152t-264 -51.5q-237 0 -378.5 128t-141.5 362v49h-174z" />
<glyph unicode="&#x2122;" horiz-adv-x="1341" d="M90 1378v82h483v-82h-194v-549h-92v549h-197zM668 829v631h108l166 -325l164 325h111v-631h-87l-2 480l-155 -314h-64l-155 312v-478h-86z" />
<glyph unicode="&#x25fc;" horiz-adv-x="1024" d="M0 0v1024h1024v-1024h-1024z" />
<glyph unicode="&#xfb01;" horiz-adv-x="1073" d="M57 905v123h183v156q0 141 71.5 216t206.5 75q56 0 113 -13v-133q-44 10 -101 10q-63 0 -101 -35t-38 -112v-164h533v-1028h-152v905h-381v-905h-151v905h-183zM772 1237v223h152v-223h-152z" />
<glyph unicode="&#xfb02;" horiz-adv-x="1261" d="M57 905v121h183v176q0 141 71.5 216t206.5 75q60 0 113 -12v-133q-44 10 -101 10q-63 0 -101 -35.5t-38 -112.5v-184h234v-121h-234v-905h-151v905h-183zM811 252v1208h152v-1214q0 -57 34 -92t101 -35q20 0 112 10v-121q-64 -20 -163 -20q-57 0 -100 16.5t-68.5 42 t-41 61.5t-21 70.5t-5.5 73.5z" />
</font>
</defs>
</svg>
